<svg xmlns="http://www.w3.org/2000/svg" viewBox="0 0 200 200" width="200" height="200">
  <g>
    <polygon points="0,-20.84313725490196 20.84313725490196,0 0,20.84313725490196 -20.84313725490196,0" fill="#F7DC6F" opacity="0.8950980392156862" transform="translate(100 100) rotate(90)"/>
    <polygon points="0,-13.220588235294116 13.220588235294116,0 0,13.220588235294116 -13.220588235294116,0" fill="#C06C84" opacity="0.9099999999999999" transform="translate(174 100) rotate(270)"/>
    <polygon points="0,-17.544117647058822 17.544117647058822,0 0,17.544117647058822 -17.544117647058822,0" fill="#FFA07A" opacity="0.7923529411764706" transform="translate(137 164.08587988004845) rotate(0)"/>
    <polygon points="0,-20.905598534002294 -18.014705882352942,10.296787337642922 18.014705882352942,10.296787337642922" fill="#45B7D1" opacity="0.8621568627450981" transform="translate(63.000000000000014 164.08587988004848) rotate(180)"/>
    <polygon points="17.397058823529413,0 8.698529411764708,15.06629489230869 -8.698529411764703,15.066294892308692 -17.397058823529413,2.1305252402813516e-15 -8.698529411764714,-15.066294892308688 8.698529411764708,-15.06629489230869" fill="#C06C84" opacity="0.9343137254901961" transform="translate(26 100.00000000000001) rotate(90)"/>
    <polygon points="0,-17.897058823529413 17.897058823529413,0 0,17.897058823529413 -17.897058823529413,0" fill="#45B7D1" opacity="0.8111764705882353" transform="translate(62.999999999999964 35.91412011995155) rotate(270)"/>
    <rect x="-15.014705882352942" y="-15.014705882352942" width="30.029411764705884" height="30.029411764705884" fill="#F7DC6F" opacity="0.8056862745098039" transform="translate(136.99999999999994 35.914120119951505) rotate(270)"/>
  </g>
</svg>