<svg xmlns="http://www.w3.org/2000/svg" viewBox="0 0 200 200" width="200" height="200">
  <g>
    <polygon points="15.862745098039216,0 7.93137254901961,13.737540228659036 -7.9313725490196045,13.737540228659038 -15.862745098039216,1.9426260010004094e-15 -7.931372549019615,-13.737540228659034 7.93137254901961,-13.737540228659036" fill="#98D8C8" opacity="0.806470588235294" transform="translate(170 100) rotate(270)"/>
    <polygon points="0,-20.019607843137255 20.019607843137255,0 0,20.019607843137255 -20.019607843137255,0" fill="#85C1E2" opacity="0.7970588235294117" transform="translate(143.64428613011137 154.72820377276207) rotate(270)"/>
    <polygon points="15.352941176470589,0 7.676470588235296,13.296037081631676 -7.676470588235291,13.296037081631678 -15.352941176470589,1.8801930269262304e-15 -7.6764705882353015,-13.296037081631674 7.676470588235296,-13.296037081631676" fill="#C06C84" opacity="0.7986274509803921" transform="translate(84.423534623058 168.24495385272763) rotate(270)"/>
    <polygon points="22.52941176470588,0 11.264705882352942,19.51104292055529 -11.264705882352935,19.511042920555294 -22.52941176470588,2.759057200431978e-15 -11.264705882352951,-19.51104292055529 11.264705882352942,-19.51104292055529" fill="#F8B195" opacity="0.8425490196078431" transform="translate(36.93217924683067 130.3718617382291) rotate(0)"/>
    <rect x="-23.235294117647058" y="-23.235294117647058" width="46.470588235294116" height="46.470588235294116" fill="#C06C84" opacity="0.9092156862745098" transform="translate(36.93217924683066 69.62813826177094) rotate(180)"/>
    <rect x="-21.196078431372552" y="-21.196078431372552" width="42.392156862745104" height="42.392156862745104" fill="#C06C84" opacity="0.9366666666666666" transform="translate(84.42353462305798 31.755046147272353) rotate(0)"/>
    <rect x="-22.52941176470588" y="-22.52941176470588" width="45.05882352941176" height="45.05882352941176" fill="#FF6B6B" opacity="0.9162745098039216" transform="translate(143.64428613011134 45.27179622723791) rotate(270)"/>
  </g>
</svg>