<svg xmlns="http://www.w3.org/2000/svg" viewBox="0 0 200 200" width="200" height="200">
  <g>
    <polygon points="0,-25.77058823529412 25.77058823529412,0 0,25.77058823529412 -25.77058823529412,0" fill="#85C1E2" opacity="0.7931372549019607" transform="translate(100 100) rotate(270)"/>
    <polygon points="0,-25.507674510603074 -21.980392156862745,12.563481475371663 21.980392156862745,12.563481475371663" fill="#BB8FCE" opacity="0.8888235294117647" transform="translate(164 100) rotate(90)"/>
    <polygon points="0,-21.549019607843135 21.549019607843135,0 0,21.549019607843135 -21.549019607843135,0" fill="#FF6B6B" opacity="0.8856862745098039" transform="translate(132 155.42562584220406) rotate(90)"/>
    <polygon points="0,-23.07843137254902 23.07843137254902,0 0,23.07843137254902 -23.07843137254902,0" fill="#C06C84" opacity="0.8911764705882352" transform="translate(68.00000000000001 155.42562584220408) rotate(90)"/>
    <rect x="-20.88235294117647" y="-20.88235294117647" width="41.76470588235294" height="41.76470588235294" fill="#98D8C8" opacity="0.8833333333333333" transform="translate(36 100.00000000000001) rotate(180)"/>
    <polygon points="23.47058823529412,0 11.735294117647062,20.326125653528884 -11.735294117647054,20.326125653528887 -23.47058823529412,2.874318075645847e-15 -11.73529411764707,-20.32612565352888 11.735294117647062,-20.326125653528884" fill="#98D8C8" opacity="0.7570588235294118" transform="translate(67.99999999999997 44.57437415779594) rotate(180)"/>
    <polygon points="23.50980392156863,0 11.754901960784316,20.36008743406945 -11.75490196078431,20.360087434069452 -23.50980392156863,2.8791206121130914e-15 -11.754901960784325,-20.36008743406945 11.754901960784316,-20.36008743406945" fill="#98D8C8" opacity="0.9382352941176471" transform="translate(132 44.57437415779593) rotate(270)"/>
  </g>
</svg>