<svg xmlns="http://www.w3.org/2000/svg" viewBox="0 0 200 200" width="200" height="200">
  <g>
    <polygon points="25.97450980392157,0 12.987254901960789,22.494585341044036 -12.98725490196078,22.49458534104404 -25.97450980392157,3.1809600290794095e-15 -12.987254901960796,-22.494585341044033 12.987254901960789,-22.494585341044036" fill="#FF8C42" opacity="0.8182352941176471" transform="translate(100 100) rotate(180)"/>
    <circle cx="164" cy="100" r="24.843137254901958" fill="#FDC830" opacity="0.9398039215686274"/>
    <polygon points="0,-22.868164926990264 -19.705882352941178,11.263424516278787 19.705882352941178,11.263424516278787" fill="#FF9F1C" opacity="0.8888235294117647" transform="translate(132 155.42562584220406) rotate(0)"/>
    <circle cx="68.00000000000001" cy="155.42562584220408" r="21.431372549019606" fill="#D4A574" opacity="0.9492156862745098"/>
    <rect x="-15.196078431372548" y="-15.196078431372548" width="30.392156862745097" height="30.392156862745097" fill="#F7931E" opacity="0.79" transform="translate(36 100.00000000000001) rotate(270)"/>
    <polygon points="0,-19.627450980392158 19.627450980392158,0 0,19.627450980392158 -19.627450980392158,0" fill="#FF6B35" opacity="0.8770588235294117" transform="translate(67.99999999999997 44.57437415779594) rotate(90)"/>
    <polygon points="15.196078431372548,0 7.598039215686276,13.16018995946941 -7.598039215686271,13.160189959469411 -15.196078431372548,1.8609828810572523e-15 -7.598039215686281,-13.160189959469408 7.598039215686276,-13.16018995946941" fill="#E63946" opacity="0.8519607843137255" transform="translate(132 44.57437415779593) rotate(180)"/>
  </g>
</svg>