<svg xmlns="http://www.w3.org/2000/svg" viewBox="0 0 200 200" width="200" height="200">
  <g>
    <polygon points="0,-22.507843137254902 22.507843137254902,0 0,22.507843137254902 -22.507843137254902,0" fill="#20B2AA" opacity="0.8323529411764705" transform="translate(100 100) rotate(270)"/>
    <polygon points="19.431372549019606,0 9.715686274509805,16.82806225785056 -9.7156862745098,16.82806225785056 -19.431372549019606,2.3796568195196605e-15 -9.715686274509812,-16.828062257850558 9.715686274509805,-16.82806225785056" fill="#6495ED" opacity="0.9358823529411764" transform="translate(164 100) rotate(90)"/>
    <polygon points="0,-19.136444481192846 -16.49019607843137,9.425412953423342 16.49019607843137,9.425412953423342" fill="#6A5ACD" opacity="0.7774509803921569" transform="translate(132 155.42562584220406) rotate(270)"/>
    <rect x="-23.941176470588236" y="-23.941176470588236" width="47.88235294117647" height="47.88235294117647" fill="#87CEEB" opacity="0.8111764705882353" transform="translate(68.00000000000001 155.42562584220408) rotate(0)"/>
    <polygon points="0,-26.55437658686332 -22.88235294117647,13.079021303977457 22.88235294117647,13.079021303977457" fill="#20B2AA" opacity="0.9366666666666666" transform="translate(36 100.00000000000001) rotate(90)"/>
    <polygon points="0,-19.980392156862745 19.980392156862745,0 0,19.980392156862745 -19.980392156862745,0" fill="#6495ED" opacity="0.79" transform="translate(67.99999999999997 44.57437415779594) rotate(0)"/>
    <circle cx="132" cy="44.57437415779593" r="17.549019607843135" fill="#6A5ACD" opacity="0.9099999999999999"/>
  </g>
</svg>