<svg xmlns="http://www.w3.org/2000/svg" viewBox="0 0 200 200" width="200" height="200">
  <g>
    <polygon points="30.76666666666667,0 15.383333333333338,26.64471492310123 -15.383333333333328,26.644714923101233 -30.76666666666667,3.76782998537669e-15 -15.383333333333349,-26.644714923101226 15.383333333333338,-26.64471492310123" fill="#5F9EA0" opacity="0.8158823529411765" transform="translate(100 100) rotate(180)"/>
    <polygon points="20.372549019607845,0 10.186274509803924,17.643144990824155 -10.186274509803917,17.643144990824155 -20.372549019607845,2.49491769473353e-15 -10.186274509803932,-17.64314499082415 10.186274509803924,-17.643144990824155" fill="#50C9CE" opacity="0.7523529411764706" transform="translate(164 100) rotate(0)"/>
    <polygon points="22.176470588235293,0 11.088235294117649,19.205386895690197 -11.088235294117641,19.2053868956902 -22.176470588235293,2.7158343722267774e-15 -11.088235294117657,-19.205386895690193 11.088235294117649,-19.205386895690197" fill="#6A5ACD" opacity="0.8754901960784314" transform="translate(100 164) rotate(270)"/>
    <polygon points="21.941176470588236,0 10.97058823529412,19.001616212446798 -10.970588235294112,19.0016162124468 -21.941176470588236,2.6870191534233102e-15 -10.970588235294127,-19.001616212446798 10.97058823529412,-19.001616212446798" fill="#7B68EE" opacity="0.8394117647058823" transform="translate(36 100.00000000000001) rotate(270)"/>
    <polygon points="15.509803921568627,0 7.7549019607843155,13.43188420379394 -7.75490196078431,13.431884203793942 -15.509803921568627,1.8994031727952086e-15 -7.754901960784321,-13.431884203793938 7.7549019607843155,-13.43188420379394" fill="#6A5ACD" opacity="0.7719607843137255" transform="translate(99.99999999999999 36) rotate(180)"/>
  </g>
</svg>