<svg xmlns="http://www.w3.org/2000/svg" viewBox="0 0 200 200" width="200" height="200">
  <g>
    <circle cx="56.00000000000001" cy="50" r="23.352941176470587" fill="#85C1E2" opacity="0.9209803921568627"/>
    <polygon points="0,-22.68726750294094 -19.55,11.174325785030613 19.55,11.174325785030613" fill="#C06C84" opacity="0.8668627450980392" transform="translate(56.00000000000001 83.33333333333333) rotate(0)"/>
    <polygon points="20.083333333333332,0 10.041666666666668,17.392676859337474 -10.04166666666666,17.392676859337477 -20.083333333333332,2.4594989882876007e-15 -10.041666666666675,-17.39267685933747 10.041666666666668,-17.392676859337474" fill="#F7DC6F" opacity="0.8237254901960784" transform="translate(56.00000000000001 116.66666666666666) rotate(90)"/>
    <polygon points="0,-16.227295340978213 -13.98333333333333,7.9925484515265826 13.98333333333333,7.9925484515265826" fill="#BB8FCE" opacity="0.9005882352941176" transform="translate(56.00000000000001 150) rotate(270)"/>
    <polygon points="0,-16.783333333333335 16.783333333333335,0 0,16.783333333333335 -16.783333333333335,0" fill="#FF6B6B" opacity="0.9437254901960783" transform="translate(144 50) rotate(270)"/>
    <polygon points="0,-22.339125290619595 -19.25,11.002852755081292 19.25,11.002852755081292" fill="#FFA07A" opacity="0.8558823529411764" transform="translate(144 100) rotate(270)"/>
    <rect x="-16.183333333333334" y="-16.183333333333334" width="32.36666666666667" height="32.36666666666667" fill="#F8B195" opacity="0.8778431372549019" transform="translate(144 150) rotate(0)"/>
  </g>
</svg>